<?xml version="1.0" encoding="utf-8"?>
<!-- Generator: Adobe Illustrator 19.0.0, SVG Export Plug-In . SVG Version: 6.00 Build 0)  -->
<svg version="1.1" id="圖層_1" xmlns="http://www.w3.org/2000/svg" xmlns:xlink="http://www.w3.org/1999/xlink" x="0px" y="0px"
	 viewBox="-244 216 289.8 80" style="enable-background:new -244 216 289.8 80;" xml:space="preserve">
<style type="text/css">
	.st0{fill:#46BFE8;}
</style>
<g>
	<g>
		<path class="st0" d="M-220.6,239.3c2.1-2.1,4.7-3.8,7.4-5c2.8-1.2,5.8-1.8,9-1.8c3.1,0,6.1,0.6,8.9,1.7c2.9,1.1,5.5,2.9,7.9,5.3
			c0.7,0.7,1.7,1.4,2.7,1.7c2,0.7,4.2,0.7,6.1-0.1c1-0.4,1.9-1,2.7-1.9c1.6-1.6,2.4-3.5,2.4-5.7s-0.8-4.2-2.4-5.7
			c-3.9-3.9-8.4-6.9-13.3-8.9c-4.8-2-9.9-3-15.1-3c-3.8,0-7.5,0.5-11,1.5c-3.5,1-6.7,2.4-9.7,4.2c-2.9,1.8-5.6,4-8,6.5
			c-2.4,2.5-4.4,5.2-6,8.2c-1.7,2.9-2.9,6.1-3.8,9.4c-0.9,3.3-1.4,6.8-1.4,10.3c0,3.7,0.5,7.3,1.4,10.6c0.9,3.3,2.3,6.6,4,9.5
			c1.7,3,3.8,5.7,6.2,8.1c1.2,1.2,2.4,2.3,3.7,3.3l-0.1,7.9v0.1c0,0.1,0.1,0.3,0.2,0.4c0.1,0.1,0.3,0.1,0.4,0l0.1-0.1l6.8-3.8
			c2,0.9,4.1,1.7,6.3,2.4c3.3,0.9,6.9,1.4,10.5,1.4c5.2,0,10.3-1,15.2-2.9c4.9-1.9,9.4-4.9,13.4-8.9c0.7-0.7,1.4-1.7,1.7-2.7
			c0.4-1,0.6-2,0.6-3s-0.2-2.1-0.6-3.1s-1-1.9-1.8-2.7c-0.8-0.8-1.7-1.4-2.7-1.7c-2-0.7-4.1-0.7-6.1,0.1c-1.1,0.4-1.9,1-2.7,1.7
			c-2.5,2.4-5.2,4.2-8,5.3c-2.8,1.1-5.8,1.6-8.9,1.6c-3.3-0.1-6.4-0.7-9.2-2c-2.8-1.3-5.3-3-7.4-5.1c-2-2.2-3.7-4.7-4.9-7.5
			s-1.7-5.8-1.7-9c0-3.3,0.6-6.4,1.9-9.2C-224.4,243.9-222.7,241.4-220.6,239.3z M-123.2,221.5c-0.7-1.6-1.7-2.7-3-3.6
			c-1.3-0.9-2.8-1.3-4.4-1.3c-1.7,0-3.2,0.4-4.5,1.3c-1.3,0.9-2.3,2.1-3,3.7l-26.9,62.2c-0.4,1-0.7,2-0.7,3.1
			c-0.1,1.1,0.1,2.2,0.4,3.1c0.2,1,0.8,1.9,1.5,2.7c0.7,0.8,1.7,1.4,2.7,1.9c1.1,0.4,2.1,0.7,3.2,0.7c0.1,0,0.1,0,0.2,0
			c1,0,2-0.2,2.9-0.5c1-0.4,1.9-0.9,2.7-1.7c0.8-0.7,1.4-1.6,1.9-2.7l3.9-9.4h31.1l4,9.4c0,0,0,0,0.1,0.1c0.5,1.1,1.2,1.9,1.9,2.7
			c0.8,0.7,1.7,1.3,2.7,1.7c1,0.4,2.1,0.6,3.2,0.6c1.1,0,2.2-0.2,3.3-0.7c2.1-1,3.5-2.5,4.2-4.7c0.6-2,0.5-4.1-0.4-6.1L-123.2,221.5
			z M-139.5,264.8l8.8-21l8.7,21H-139.5z M-34,224.8c-2.7-2.5-5.8-4.7-9.6-6.2c-3.5-1.4-7.4-2.3-11.6-2.3h-21.5
			c-1.2,0-2.3,0.3-3.2,0.7c-1,0.4-1.9,1.1-2.5,1.7c-0.8,0.8-1.2,1.8-1.6,2.6c-0.5,1.1-0.5,2.3-0.5,3.3v62.5c0,1,0,2.1,0.5,3.2
			c0.5,1.1,1,1.9,1.7,2.5c0.7,0.7,1.6,1.3,2.5,1.7c1,0.4,2,0.7,3.2,0.7c1.1,0,2.1-0.2,3.1-0.7s1.9-1,2.6-1.7s1.4-1.5,1.8-2.6
			c0.4-0.9,0.7-1.9,0.7-3.2v-12.4h12l15.7,18.2c0,0.1,0.1,0.1,0.1,0.1c1.6,1.6,3.4,2.4,5.5,2.4c2,0,3.9-0.8,5.5-2.4
			c0.8-0.7,1.4-1.7,1.9-2.7c0.4-1,0.6-2,0.6-3s-0.2-2.1-0.6-3.2c-0.4-1-1-1.9-1.7-2.7l-9.4-11.4c1.6-0.9,3-2,4.3-3.3
			c1.9-1.7,3.6-3.7,5-5.8c1.4-2.2,2.5-4.5,3.2-7.1c0.7-2.5,1.1-5.3,1.1-8.1c0-4.1-0.8-8-2.4-11.5C-29.1,230.5-31.3,227.4-34,224.8z
			 M-42.7,250.4c-0.7,1.5-1.6,2.8-2.8,3.9c-1.2,1.1-2.7,2-4.3,2.7c-1.6,0.7-3.3,1-5.2,1h-13.5v-25.4h13.5c1.6,0,3.3,0.4,5.1,1.2
			c1.6,0.6,3,1.6,4.2,2.9c1.2,1.1,2.1,2.5,2.9,4.2c0.7,1.6,1.1,3.2,1.1,4.9S-42,248.9-42.7,250.4z M43.5,281.4
			c-0.7-0.7-1.5-1.2-2.6-1.7c-0.9-0.4-2-0.6-3.2-0.6H4.8V263h25.3c0.9,0,2-0.1,3.2-0.6c1.1-0.4,1.9-1,2.7-1.7
			c0.7-0.7,1.3-1.6,1.7-2.5c0.4-1,0.7-2,0.7-3.2c0-1.1-0.2-2.2-0.6-3.2c-0.4-1-1-1.9-1.7-2.7c-0.9-0.9-1.9-1.4-2.6-1.7
			c-1.1-0.5-2.3-0.6-3.3-0.6H4.8v-14.3h32.9c1,0,2,0,3.2-0.4c1.1-0.5,1.9-1,2.6-1.7c0.7-0.7,1.3-1.6,1.7-2.5c0.4-1,0.7-2,0.7-3.2
			c0-1.1-0.2-2.2-0.6-3.2c-0.4-1-1-1.9-1.7-2.6c-0.7-0.7-1.5-1.4-2.6-1.8c-0.9-0.4-2-0.7-3.2-0.7h-41c-1.2,0-2.3,0.3-3.2,0.7
			c-1.1,0.4-1.9,1.1-2.6,1.8c-0.6,0.6-1.4,1.5-1.9,2.6c-0.4,0.8-0.8,2-0.8,3.3v62.3c0,2.1,0.8,4,2.4,5.6c1.4,1.6,3.5,2.5,5.6,2.5
			h41.6h0.1c0.1,0,0.1,0,0.2,0c0.9,0,1.9-0.1,2.9-0.6c1.1-0.5,1.9-1.1,2.6-1.7c0.7-0.7,1.3-1.6,1.7-2.5c0.4-1,0.7-2,0.7-3.2
			c0-1.1-0.2-2.2-0.6-3.2C44.7,283,44.2,282.1,43.5,281.4z"/>
	</g>
</g>
</svg>
