<?xml version="1.0" encoding="utf-8"?>
<!-- Generator: Adobe Illustrator 19.0.0, SVG Export Plug-In . SVG Version: 6.00 Build 0)  -->
<svg version="1.1" id="圖層_1" xmlns="http://www.w3.org/2000/svg" xmlns:xlink="http://www.w3.org/1999/xlink" x="0px" y="0px"
	 viewBox="0 0 228.3 80" style="enable-background:new 0 0 228.3 80;" xml:space="preserve">
<style type="text/css">
	.st0{fill:#07B53B;}
</style>
<g id="XMLID_403_">
	<g id="XMLID_44_">
		<path id="XMLID_45_" class="st0" d="M50.5,61.4H18.4V3.2C18.4,1.4,17,0,15.2,0h-12C1.4,0,0,1.4,0,3.2v73.3l0,0v0.1
			c0,1.8,1.4,3.2,3.2,3.2h0.1l0,0h11.9h35.3c1.8,0,3.2-1.4,3.2-3.2v-12C53.7,62.9,52.2,61.4,50.5,61.4z M78.9,0h-12
			c-1.8,0-3.2,1.4-3.2,3.2v73.4c0,1.8,1.4,3.2,3.2,3.2h12c1.8,0,3.2-1.4,3.2-3.2V3.2C82.1,1.4,80.7,0,78.9,0z M160,0h-12
			c-1.8,0-3.2,1.4-3.2,3.2v43.6L111.3,1.5c-0.1-0.1-0.2-0.2-0.3-0.3l0,0c-0.1-0.1-0.1-0.1-0.2-0.2c0,0,0,0-0.1-0.1
			c-0.1-0.1-0.1-0.1-0.2-0.1c0,0-0.1,0-0.1-0.1c-0.1,0-0.1-0.1-0.2-0.1c0,0-0.1,0-0.1-0.1c-0.1,0-0.1-0.1-0.2-0.1h-0.1
			c-0.1,0-0.1-0.1-0.2-0.1h-0.1c-0.1,0-0.1,0-0.2-0.1h-0.1c-0.1,0-0.1,0-0.2,0h-0.1c-0.1,0-0.1,0-0.2,0c-0.1,0-0.1,0-0.2,0h-0.1
			H96.8c-1.8,0-3.2,1.4-3.2,3.2v73.4c0,1.8,1.4,3.2,3.2,3.2h12c1.8,0,3.2-1.4,3.2-3.2V33l33.6,45.4c0.2,0.3,0.5,0.6,0.8,0.8l0,0
			c0.1,0,0.1,0.1,0.2,0.1c0,0,0.1,0,0.1,0.1c0.1,0,0.1,0.1,0.2,0.1c0.1,0,0.1,0,0.2,0.1h0.1c0.1,0,0.1,0,0.2,0.1l0,0
			c0.3,0.1,0.5,0.1,0.8,0.1H160c1.8,0,3.2-1.4,3.2-3.2V3.2C163.3,1.4,161.8,0,160,0z M225.1,18.4c1.8,0,3.2-1.4,3.2-3.2v-12
			c0-1.8-1.4-3.2-3.2-3.2h-35.3H178l0,0h-0.1c-1.8,0-3.2,1.4-3.2,3.2v0.1l0,0v73.2l0,0v0.1c0,1.8,1.4,3.2,3.2,3.2h0.1l0,0h11.9h35.3
			c1.8,0,3.2-1.4,3.2-3.2v-12c0-1.8-1.4-3.2-3.2-3.2H193V49.1h32.1c1.8,0,3.2-1.4,3.2-3.2v-12c0-1.8-1.4-3.2-3.2-3.2H193V18.4H225.1
			z"/>
	</g>
</g>
</svg>
